<svg xmlns="http://www.w3.org/2000/svg" viewBox="0 0 16 16" shape-rendering="crispEdges">
<rect x="1" y="1" width="13" height="1" fill="#6b4a28"/>
<rect x="1" y="2" width="1" height="12" fill="#6b4a28"/><rect x="2" y="2" width="12" height="1" fill="#e8d29a"/><rect x="14" y="2" width="1" height="12" fill="#4a3218"/>
<rect x="2" y="3" width="2" height="1" fill="#5a9ad4"/><rect x="4" y="3" width="4" height="1" fill="#6bb05a"/><rect x="8" y="3" width="3" height="1" fill="#e8d29a"/><rect x="11" y="3" width="3" height="1" fill="#5a9ad4"/>
<rect x="2" y="4" width="1" height="1" fill="#5a9ad4"/><rect x="3" y="4" width="6" height="1" fill="#4e8c42"/><rect x="9" y="4" width="2" height="1" fill="#c2a66a"/><rect x="11" y="4" width="3" height="1" fill="#5a9ad4"/>
<rect x="2" y="5" width="1" height="1" fill="#5a9ad4"/><rect x="3" y="5" width="5" height="1" fill="#6bb05a"/><rect x="8" y="5" width="3" height="1" fill="#c2a66a"/><rect x="11" y="5" width="1" height="1" fill="#6bb05a"/><rect x="12" y="5" width="2" height="1" fill="#5a9ad4"/>
<rect x="2" y="6" width="2" height="1" fill="#5a9ad4"/><rect x="4" y="6" width="4" height="1" fill="#6bb05a"/><rect x="8" y="6" width="2" height="1" fill="#8a6a38"/><rect x="10" y="6" width="3" height="1" fill="#6bb05a"/><rect x="13" y="6" width="1" height="1" fill="#5a9ad4"/>
<rect x="2" y="7" width="3" height="1" fill="#e8d29a"/><rect x="5" y="7" width="3" height="1" fill="#6bb05a"/><rect x="8" y="7" width="2" height="1" fill="#8a6a38"/><rect x="10" y="7" width="2" height="1" fill="#6bb05a"/><rect x="12" y="7" width="2" height="1" fill="#e8d29a"/>
<rect x="2" y="8" width="4" height="1" fill="#e8d29a"/><rect x="6" y="8" width="2" height="1" fill="#6bb05a"/><rect x="8" y="8" width="1" height="1" fill="#c94a3a"/><rect x="9" y="8" width="3" height="1" fill="#6bb05a"/><rect x="12" y="8" width="2" height="1" fill="#e8d29a"/>
<rect x="2" y="9" width="5" height="1" fill="#e8d29a"/><rect x="7" y="9" width="1" height="1" fill="#c94a3a"/><rect x="8" y="9" width="1" height="1" fill="#fff6e0"/><rect x="9" y="9" width="1" height="1" fill="#c94a3a"/><rect x="10" y="9" width="2" height="1" fill="#6bb05a"/><rect x="12" y="9" width="2" height="1" fill="#5a9ad4"/>
<rect x="2" y="10" width="4" height="1" fill="#e8d29a"/><rect x="6" y="10" width="2" height="1" fill="#6bb05a"/><rect x="8" y="10" width="1" height="1" fill="#c94a3a"/><rect x="9" y="10" width="3" height="1" fill="#6bb05a"/><rect x="12" y="10" width="2" height="1" fill="#5a9ad4"/>
<rect x="2" y="11" width="3" height="1" fill="#5a9ad4"/><rect x="5" y="11" width="7" height="1" fill="#6bb05a"/><rect x="12" y="11" width="2" height="1" fill="#5a9ad4"/>
<rect x="2" y="12" width="4" height="1" fill="#5a9ad4"/><rect x="6" y="12" width="4" height="1" fill="#4e8c42"/><rect x="10" y="12" width="4" height="1" fill="#5a9ad4"/>
<rect x="2" y="13" width="12" height="1" fill="#c2a66a"/>
<rect x="1" y="14" width="14" height="1" fill="#4a3218"/>
</svg>
